REM DIRINDEX 1\2,1\3,1\4,1\5,1\6
REM DIRNAME cjc030,folder01,folder02,folder03,folder04,folder05
TITLE ""
FILE "Disc3Track52.mp3" MP3
  TRACK 01 AUDIO
    TITLE "3:cjc030_05639"
    INDEX 01 00:00:00
  TRACK 02 AUDIO
    TITLE "0:"
    INDEX 01 00:01:09
  TRACK 03 AUDIO
    TITLE "4:cjc030_05640"
    INDEX 01 00:01:17
  TRACK 04 AUDIO
    TITLE "0:"
    INDEX 01 00:02:14
  TRACK 05 AUDIO
    TITLE "5:cjc030_05641"
    INDEX 01 00:02:20
  TRACK 06 AUDIO
    TITLE "0:"
    INDEX 01 00:03:39
  TRACK 07 AUDIO
    TITLE "6:cjc030_05642"
    INDEX 01 00:03:51
  TRACK 08 AUDIO
    TITLE "0:"
    INDEX 01 00:07:21
  TRACK 09 AUDIO
    TITLE "3:cjc030_05643"
    INDEX 01 00:07:70
  TRACK 10 AUDIO
    TITLE "0:"
    INDEX 01 00:09:16
  TRACK 11 AUDIO
    TITLE "4:cjc030_05644"
    INDEX 01 00:09:20
  TRACK 12 AUDIO
    TITLE "0:"
    INDEX 01 00:10:23
  TRACK 13 AUDIO
    TITLE "5:cjc030_05645"
    INDEX 01 00:10:29
  TRACK 14 AUDIO
    TITLE "0:"
    INDEX 01 00:11:50
  TRACK 15 AUDIO
    TITLE "3:cjc030_05646"
    INDEX 01 00:12:32
  TRACK 16 AUDIO
    TITLE "0:"
    INDEX 01 00:13:45
  TRACK 17 AUDIO
    TITLE "4:cjc030_05647"
    INDEX 01 00:13:51
  TRACK 18 AUDIO
    TITLE "0:"
    INDEX 01 00:14:58
  TRACK 19 AUDIO
    TITLE "5:cjc030_05648"
    INDEX 01 00:14:68
  TRACK 20 AUDIO
    TITLE "0:"
    INDEX 01 00:16:02
  TRACK 21 AUDIO
    TITLE "6:cjc030_05649"
    INDEX 01 00:16:16
  TRACK 22 AUDIO
    TITLE "0:"
    INDEX 01 00:19:44
  TRACK 23 AUDIO
    TITLE "3:cjc030_05650"
    INDEX 01 00:20:16
  TRACK 24 AUDIO
    TITLE "0:"
    INDEX 01 00:21:11
  TRACK 25 AUDIO
    TITLE "4:cjc030_05651"
    INDEX 01 00:21:21
  TRACK 26 AUDIO
    TITLE "0:"
    INDEX 01 00:23:12
  TRACK 27 AUDIO
    TITLE "5:cjc030_05652"
    INDEX 01 00:23:20
  TRACK 28 AUDIO
    TITLE "0:"
    INDEX 01 00:24:14
  TRACK 29 AUDIO
    TITLE "6:cjc030_05653"
    INDEX 01 00:24:29
  TRACK 30 AUDIO
    TITLE "0:"
    INDEX 01 00:27:02
  TRACK 31 AUDIO
    TITLE "3:cjc030_05654"
    INDEX 01 00:27:51
  TRACK 32 AUDIO
    TITLE "0:"
    INDEX 01 00:28:64
  TRACK 33 AUDIO
    TITLE "4:cjc030_05655"
    INDEX 01 00:28:72
  TRACK 34 AUDIO
    TITLE "0:"
    INDEX 01 00:30:22
  TRACK 35 AUDIO
    TITLE "5:cjc030_05656"
    INDEX 01 00:30:32
  TRACK 36 AUDIO
    TITLE "0:"
    INDEX 01 00:31:41
  TRACK 37 AUDIO
    TITLE "3:cjc030_05657"
    INDEX 01 00:32:23
  TRACK 38 AUDIO
    TITLE "0:"
    INDEX 01 00:33:32
  TRACK 39 AUDIO
    TITLE "4:cjc030_05658"
    INDEX 01 00:33:38
  TRACK 40 AUDIO
    TITLE "0:"
    INDEX 01 00:35:27
  TRACK 41 AUDIO
    TITLE "5:cjc030_05659"
    INDEX 01 00:35:35
  TRACK 42 AUDIO
    TITLE "0:"
    INDEX 01 00:36:44
  TRACK 43 AUDIO
    TITLE "6:cjc030_05660"
    INDEX 01 00:36:56
  TRACK 44 AUDIO
    TITLE "0:"
    INDEX 01 00:39:41
  TRACK 45 AUDIO
    TITLE "3:cjc030_05661"
    INDEX 01 00:40:13
  TRACK 46 AUDIO
    TITLE "0:"
    INDEX 01 00:41:30
  TRACK 47 AUDIO
    TITLE "4:cjc030_05662"
    INDEX 01 00:41:38
  TRACK 48 AUDIO
    TITLE "0:"
    INDEX 01 00:42:74
  TRACK 49 AUDIO
    TITLE "5:cjc030_05663"
    INDEX 01 00:43:05
  TRACK 50 AUDIO
    TITLE "0:"
    INDEX 01 00:44:24
  TRACK 51 AUDIO
    TITLE "3:cjc030_05664"
    INDEX 01 00:45:04
  TRACK 52 AUDIO
    TITLE "0:"
    INDEX 01 00:46:21
  TRACK 53 AUDIO
    TITLE "4:cjc030_05665"
    INDEX 01 00:46:31
  TRACK 54 AUDIO
    TITLE "0:"
    INDEX 01 00:47:34
  TRACK 55 AUDIO
    TITLE "5:cjc030_05666"
    INDEX 01 00:47:42
  TRACK 56 AUDIO
    TITLE "0:"
    INDEX 01 00:48:57
  TRACK 57 AUDIO
    TITLE "6:cjc030_05667"
    INDEX 01 00:48:71
  TRACK 58 AUDIO
    TITLE "0:"
    INDEX 01 00:54:54
  TRACK 59 AUDIO
    TITLE "3:cjc030_05668"
    INDEX 01 00:55:28
  TRACK 60 AUDIO
    TITLE "0:"
    INDEX 01 00:56:51
  TRACK 61 AUDIO
    TITLE "4:cjc030_05669"
    INDEX 01 00:56:59
  TRACK 62 AUDIO
    TITLE "0:"
    INDEX 01 00:57:66
  TRACK 63 AUDIO
    TITLE "5:cjc030_05670"
    INDEX 01 00:57:74
  TRACK 64 AUDIO
    TITLE "0:"
    INDEX 01 00:59:24
  TRACK 65 AUDIO
    TITLE "3:cjc030_05671"
    INDEX 01 01:00:02
  TRACK 66 AUDIO
    TITLE "0:"
    INDEX 01 01:01:07
  TRACK 67 AUDIO
    TITLE "4:cjc030_05672"
    INDEX 01 01:01:15
  TRACK 68 AUDIO
    TITLE "0:"
    INDEX 01 01:03:37
  TRACK 69 AUDIO
    TITLE "5:cjc030_05673"
    INDEX 01 01:03:47
  TRACK 70 AUDIO
    TITLE "0:"
    INDEX 01 01:04:50
  TRACK 71 AUDIO
    TITLE "6:cjc030_05674"
    INDEX 01 01:04:62
  TRACK 72 AUDIO
    TITLE "0:"
    INDEX 01 01:10:53
  TRACK 73 AUDIO
    TITLE "3:cjc030_05675"
    INDEX 01 01:11:27
  TRACK 74 AUDIO
    TITLE "0:"
    INDEX 01 01:12:38
  TRACK 75 AUDIO
    TITLE "4:cjc030_05676"
    INDEX 01 01:12:48
  TRACK 76 AUDIO
    TITLE "0:"
    INDEX 01 01:13:57
  TRACK 77 AUDIO
    TITLE "5:cjc030_05677"
    INDEX 01 01:13:65
  TRACK 78 AUDIO
    TITLE "0:"
    INDEX 01 01:15:03
  TRACK 79 AUDIO
    TITLE "3:cjc030_05678"
    INDEX 01 01:15:62
  TRACK 80 AUDIO
    TITLE "0:"
    INDEX 01 01:16:71
  TRACK 81 AUDIO
    TITLE "4:cjc030_05679"
    INDEX 01 01:17:02
  TRACK 82 AUDIO
    TITLE "0:"
    INDEX 01 01:19:15
  TRACK 83 AUDIO
    TITLE "5:cjc030_05680"
    INDEX 01 01:19:23
  TRACK 84 AUDIO
    TITLE "0:"
    INDEX 01 01:20:32
